<!DOCTYPE svg PUBLIC "-//W3C//DTD SVG 1.1//EN" "http://www.w3.org/Graphics/SVG/1.1/DTD/svg11.dtd">
<!-- Uploaded to: SVG Repo, www.svgrepo.com, Transformed by: SVG Repo Mixer Tools -->
<svg version="1.1" id="smartphone" xmlns="http://www.w3.org/2000/svg" xmlns:xlink="http://www.w3.org/1999/xlink" x="0px" y="0px" width="64px" height="64px" viewBox="-25.6 -25.6 307.20 307.20" xml:space="preserve" fill="#0F172A" stroke="#0F172A" stroke-width="0.00256" transform="matrix(-1, 0, 0, 1, 0, 0)rotate(45)">
<g id="SVGRepo_bgCarrier" stroke-width="0" transform="translate(0,0), scale(1)">
<path transform="translate(-25.6, -25.6), scale(9.6)" d="M16,30.94577539132701C18.41575483077378,31.380898532404608,21.05637659880587,30.897640304142342,23.127147723470273,29.57964542571368C25.161130620385656,28.285065349231093,26.6817696805308,26.115154332564643,27.265159749416853,23.775778341644184C27.80715353781507,21.6024001450838,26.313611715116167,19.476352200536653,26.204622984157037,17.239065560771813C26.117149177261197,15.443430564610399,27.307621298535395,13.634174865855778,26.68888741124477,11.946239712169273C26.069577321975977,10.256732652378126,24.071670903830903,9.578084410550838,22.896787881094887,8.215135778121525C21.51559615357123,6.612854240537308,20.916361673711418,4.37453352092769,19.153710474055238,3.2048936352305297C17.158342122810453,1.8808299686758978,14.710643574574988,0.7776237115119353,12.357440864128632,1.2215566499016806C10.000753823680604,1.6661469089927383,8.116962105857171,3.5837666226292484,6.739336555748363,5.5468718538335615C5.474167588758414,7.349727366537399,5.867824466276329,9.808663266627685,4.932159823889846,11.802521885414084C3.8970206767843383,14.00835613050785,1.1677568962765388,15.394758813609691,0.9780079060934206,17.824000071991243C0.7899294854684764,20.23185404134535,2.27343475025879,22.580397386988842,3.954871481413143,24.31415191089471C5.557846243993112,25.967003127260128,8.086986150942971,26.12344063866752,10.103980458328401,27.233926656987297C12.16839180022042,28.37051882427187,13.680706565644549,30.52802677239363,16,30.94577539132701" fill="#0F172A" strokewidth="0"/>
</g>
<g id="SVGRepo_tracerCarrier" stroke-linecap="round" stroke-linejoin="round" stroke="#CCCCCC" stroke-width="1.536"/>
<g id="SVGRepo_iconCarrier"> <style type="text/css">  .st0{fill:#fff;} .st1{fill:#fffD1D1D1;}  </style> <path class="st1" d="M177.242,7H85.737C71.821,7,60.5,18.321,60.5,32.237v194.525C60.5,240.68,71.821,252,85.737,252h91.505 c13.916,0,25.236-11.32,25.236-25.236V32.237C202.479,18.321,191.158,7,177.242,7z"/> <path class="st0" d="M177.242,17H85.737C77.356,17,70.5,23.856,70.5,32.237v194.525c0,8.381,6.856,15.237,15.237,15.237h91.505 c8.381,0,15.236-6.856,15.236-15.237V32.237C192.479,23.856,185.623,17,177.242,17z M107.228,31.333h48.524 c2.368,0,4.307,1.725,4.307,3.833s-1.938,3.833-4.307,3.833h-48.524c-2.368,0-4.306-1.725-4.306-3.833 C102.922,33.059,104.859,31.333,107.228,31.333z M133.984,231.5h-4.988c-4.758,0-8.616-4.253-8.616-9.5s3.858-9.5,8.616-9.5h4.988 c4.758,0,8.615,4.253,8.615,9.5S138.742,231.5,133.984,231.5z M182.813,200.786c0,2.593-2.121,4.714-4.713,4.714H84.881 c-2.592,0-4.713-2.121-4.713-4.714V54.713c0-2.592,2.121-4.713,4.713-4.713H178.1c2.592,0,4.713,2.121,4.713,4.713V200.786z"/> </g>
</svg>