<svg xmlns="http://www.w3.org/2000/svg" viewBox="0 0 500 500"><g id="freepik--Floor--inject-36"><path d="M462.67,466.85c0,.14-95.22.26-212.66.26S37.33,467,37.33,466.85s95.2-.26,212.68-.26S462.67,466.71,462.67,466.85Z" style="fill:#263238"></path></g><g id="freepik--Device--inject-36"><path d="M322.25,466.66l-129.68-.08c-15.6,0-28.24-13.3-28.23-29.69l.06-341.67c0-16.4,12.66-29.69,28.27-29.68l129.68.08c15.6,0,28.24,13.3,28.23,29.69L350.52,437C350.52,453.38,337.86,466.67,322.25,466.66Z" style="fill:#263238"></path><path d="M322.21,77.7H297.07c-3.37,0-6.11,3-6.11,6.7v4.79c0,3.71-2.73,6.71-6.1,6.71l-49,0c-3.38,0-6.11-3-6.11-6.71v-4.8c0-3.7-2.73-6.71-6.1-6.71H214.8l-22,0c-10.93,0-19.8,9.3-19.8,20.79l-.06,333.5c0,11.48,8.85,20.79,19.77,20.79l129.43.08c10.93,0,19.79-9.3,19.79-20.79L342,98.5C342,87,333.14,77.71,322.21,77.7Z" style="fill:#fff"></path><path d="M281.24,241.47a9,9,0,1,1-9-9A9,9,0,0,1,281.24,241.47Z" style="fill:#0F0D2A"></path><ellipse cx="245.46" cy="241.47" rx="9.6" ry="9.62" style="fill:#0F0D2A"></ellipse><ellipse cx="224.89" cy="224.45" rx="10.19" ry="10.21" style="fill:#0F0D2A"></ellipse><ellipse cx="220.72" cy="198.27" rx="10.64" ry="10.67" style="fill:#0F0D2A"></ellipse><ellipse cx="233.75" cy="175.36" rx="11" ry="11.03" style="fill:#0F0D2A"></ellipse><ellipse cx="258.8" cy="166.3" rx="11.99" ry="12.02" style="fill:#0F0D2A"></ellipse><path d="M300.82,224.24a8.71,8.71,0,1,1-8.71-8.73A8.72,8.72,0,0,1,300.82,224.24Z" style="fill:#0F0D2A"></path><ellipse cx="296.77" cy="197.98" rx="8.08" ry="8.1" style="fill:#0F0D2A"></ellipse><ellipse cx="283.33" cy="175.05" rx="7.38" ry="7.4" style="fill:#0F0D2A"></ellipse><g style="opacity:0.5"><path d="M281.24,241.47a9,9,0,1,1-9-9A9,9,0,0,1,281.24,241.47Z" style="fill:#fff"></path></g><g style="opacity:0.4"><ellipse cx="245.46" cy="241.47" rx="9.6" ry="9.62" style="fill:#fff"></ellipse></g><g style="opacity:0.30000000000000004"><ellipse cx="224.89" cy="224.45" rx="10.19" ry="10.21" style="fill:#fff"></ellipse></g><g style="opacity:0.2"><ellipse cx="220.72" cy="198.27" rx="10.64" ry="10.67" style="fill:#fff"></ellipse></g><g style="opacity:0.1"><ellipse cx="233.75" cy="175.36" rx="11" ry="11.03" style="fill:#fff"></ellipse></g><g style="opacity:0.2"><ellipse cx="258.8" cy="166.3" rx="11.99" ry="12.02" style="fill:#fff"></ellipse></g><g style="opacity:0.6000000000000001"><path d="M300.82,224.24a8.71,8.71,0,1,1-8.71-8.73A8.72,8.72,0,0,1,300.82,224.24Z" style="fill:#fff"></path></g><g style="opacity:0.7000000000000001"><ellipse cx="296.77" cy="197.98" rx="8.08" ry="8.1" style="fill:#fff"></ellipse></g><g style="opacity:0.8"><ellipse cx="283.33" cy="175.05" rx="7.38" ry="7.4" style="fill:#fff"></ellipse></g><path d="M230.06,328a3.18,3.18,0,0,1,3.32-3.23,3.08,3.08,0,0,1,2.32.93l-.43.42a2.53,2.53,0,0,0-1.87-.75,2.63,2.63,0,1,0,0,5.26,2.5,2.5,0,0,0,1.87-.76l.43.42a3.1,3.1,0,0,1-2.33.94A3.18,3.18,0,0,1,230.06,328Z" style="fill:#263238"></path><path d="M242.42,324.77v6.35h-.66v-2.93h-4v2.93h-.67v-6.35h.67v2.84h4v-2.84Z" style="fill:#263238"></path><path d="M249,330.54v.58h-4.48v-6.35h4.34v.58h-3.67v2.26h3.28v.58h-3.28v2.35Z" style="fill:#263238"></path><path d="M249.94,328a3.18,3.18,0,0,1,3.32-3.23,3.08,3.08,0,0,1,2.32.93l-.43.42a2.53,2.53,0,0,0-1.87-.75,2.63,2.63,0,1,0,0,5.26,2.5,2.5,0,0,0,1.87-.76l.43.42a3.1,3.1,0,0,1-2.33.94A3.18,3.18,0,0,1,249.94,328Z" style="fill:#263238"></path><path d="M259,328.14l-1.3,1.32v1.66H257v-6.35h.67v3.84l3.72-3.84h.77l-2.74,2.88,2.93,3.47h-.79Z" style="fill:#263238"></path><path d="M263.44,324.77h.67v6.35h-.67Z" style="fill:#263238"></path><path d="M271.46,324.77v6.35h-.55L266.84,326v5.15h-.67v-6.35h.55l4.08,5.16v-5.16Z" style="fill:#263238"></path><path d="M278,328h.64v2.42a3.47,3.47,0,0,1-2.32.81,3.23,3.23,0,1,1,0-6.46,3.13,3.13,0,0,1,2.36.92l-.42.42a2.68,2.68,0,1,0-1.92,4.52,2.77,2.77,0,0,0,1.66-.49Z" style="fill:#263238"></path><path d="M280.06,330.67a.48.48,0,0,1,.48-.49.49.49,0,0,1,.49.49.5.5,0,0,1-.49.5A.49.49,0,0,1,280.06,330.67Z" style="fill:#263238"></path><path d="M282,330.67a.48.48,0,0,1,.48-.49.49.49,0,0,1,.49.49.5.5,0,0,1-.49.5A.48.48,0,0,1,282,330.67Z" style="fill:#263238"></path><path d="M283.9,330.67a.48.48,0,0,1,.48-.49.48.48,0,0,1,.48.49.49.49,0,0,1-.48.5A.48.48,0,0,1,283.9,330.67Z" style="fill:#263238"></path><rect x="196.48" y="288.03" width="122.07" height="24.3" rx="11.22" style="fill:#f5f5f5"></rect><rect x="196.48" y="288.03" width="67.86" height="24.3" rx="11.22" style="fill:#0F0D2A"></rect><path d="M293.52,302c0,1.26-.87,2.22-2.63,2.22a3.58,3.58,0,0,1-2.64-1l.28-.42a3.15,3.15,0,0,0,2.35.93c1.39,0,2.1-.7,2.1-1.7s-.66-1.73-2.7-1.73h-1.52l.4-3.65h4v.5h-3.52l-.29,2.65h1.07C292.69,299.75,293.52,300.62,293.52,302Z" style="fill:#0F0D2A"></path><path d="M299.46,302c0,1.26-.87,2.22-2.63,2.22a3.58,3.58,0,0,1-2.64-1l.28-.42a3.15,3.15,0,0,0,2.35.93c1.39,0,2.09-.7,2.09-1.7s-.65-1.73-2.69-1.73H294.7l.39-3.65h4v.5h-3.53l-.28,2.65h1.07C298.62,299.75,299.46,300.62,299.46,302Z" style="fill:#0F0D2A"></path><path d="M300.28,298.59c0-1.22.68-2,1.65-2s1.67.81,1.67,2-.69,2-1.67,2S300.28,299.82,300.28,298.59Zm2.91,0c0-1-.51-1.66-1.26-1.66s-1.24.63-1.24,1.66.5,1.67,1.24,1.67S303.19,299.63,303.19,298.59Zm3.32-2H307l-5.13,7.53h-.46Zm-1.74,5.54c0-1.23.68-2,1.66-2s1.65.8,1.65,2-.67,2-1.65,2S304.77,303.37,304.77,302.14Zm2.9,0c0-1-.5-1.67-1.24-1.67s-1.26.63-1.26,1.67.51,1.67,1.26,1.67S307.67,303.17,307.67,302.14Z" style="fill:#0F0D2A"></path><g style="opacity:0.2"><polygon points="225.99 288.03 216.87 312.04 223.57 312.04 232.08 288.03 225.99 288.03" style="fill:#fff"></polygon></g><g style="opacity:0.2"><polygon points="242.45 288.03 233.32 312.04 240.03 312.04 248.53 288.03 242.45 288.03" style="fill:#fff"></polygon></g><g style="opacity:0.2"><path d="M258.57,289.84l-8.5,22.35h4a15.72,15.72,0,0,0,3.08-1L263,294.63A13,13,0,0,0,258.57,289.84Z" style="fill:#fff"></path></g><g style="opacity:0.2"><path d="M210,288l-8.39,22.08a12,12,0,0,0,6,1.93l8.51-24Z" style="fill:#fff"></path></g><path d="M307.11,312.33a16.17,16.17,0,0,0,2.73-.4,11.38,11.38,0,0,0,6.4-4.35,11.13,11.13,0,0,0,2.07-5.24,20.68,20.68,0,0,0,.08-3.27,11.06,11.06,0,0,0-.68-3.43,11.26,11.26,0,0,0-8.8-7.27,31.43,31.43,0,0,0-4.49-.15l-96.5.08a12.55,12.55,0,0,0-3.39.52,12,12,0,0,0-3.05,1.53,11.18,11.18,0,0,0-4,5.3c-1.35,4.21-.91,9.29,2,12.55a11.2,11.2,0,0,0,5.36,3.44c2,.62,4.23.39,6.37.44h12.54l43.38.05,29.25.09,8,0,2.06,0,.71,0-.71,0-2.06,0-8,.05-29.25.08-43.38.06H208a12.66,12.66,0,0,1-3.28-.46,11.7,11.7,0,0,1-8.38-9.78,22.09,22.09,0,0,1-.08-3.45,11.19,11.19,0,0,1,.69-3.43,11.73,11.73,0,0,1,4.25-5.56,12.52,12.52,0,0,1,3.19-1.59,13,13,0,0,1,3.55-.55l96.5.07A31,31,0,0,1,309,288a11.53,11.53,0,0,1,9,7.52c1.46,4.76.6,9.41-1.58,12.16a11.39,11.39,0,0,1-6.54,4.34,7.9,7.9,0,0,1-1.19.21,4.87,4.87,0,0,1-.87.07C307.35,312.34,307.11,312.33,307.11,312.33Z" style="fill:#263238"></path><path d="M208.29,421.31v8.16a.9.9,0,0,1-1.38.76l-6.42-4.08a.91.91,0,0,1,0-1.52l6.42-4.08A.9.9,0,0,1,208.29,421.31Z" style="fill:#e0e0e0"></path><path d="M261,425.31a5.63,5.63,0,1,1-5.63-5.64A5.63,5.63,0,0,1,261,425.31Z" style="fill:#e0e0e0"></path><rect x="301.44" y="420.41" width="10.38" height="10.41" rx="1.87" style="fill:#e0e0e0"></rect></g><g id="freepik--character-1--inject-36"><path d="M86.88,426.67,80.82,448s19.31,13.39,18.57,17.43L58.24,455l8.11-33.55Z" style="fill:#455a64"></path><path d="M68.54,442.91a1.75,1.75,0,0,0-1.64,1.65,1.69,1.69,0,0,0,1.6,1.67,1.85,1.85,0,0,0,1.73-1.76c-.08-.86-1-1.75-1.85-1.54" style="fill:#e0e0e0"></path><g style="opacity:0.6000000000000001"><path d="M58.24,455l.95-3.35,39.1,11.25s1.63,1.28,1.1,2.53Z" style="fill:#fff"></path></g><path d="M81.54,447.9c-.06.2-1.08,0-2.23.45s-1.89,1.12-2.06,1,.43-1.23,1.83-1.7S81.63,447.73,81.54,447.9Z" style="fill:#263238"></path><path d="M85.41,450.81c0,.2-1,.33-1.85,1s-1.32,1.55-1.52,1.49,0-1.25,1.09-2.08S85.45,450.61,85.41,450.81Z" style="fill:#263238"></path><path d="M86.57,456.66c-.2,0-.22-1.09.57-2.07s1.84-1.19,1.88-1-.69.64-1.32,1.45S86.77,456.69,86.57,456.66Z" style="fill:#263238"></path><path d="M82.39,442.9c-.13.16-1-.35-2.14-.56s-2.13-.07-2.19-.27,1-.72,2.33-.45S82.53,442.76,82.39,442.9Z" style="fill:#263238"></path><path d="M72.46,431.68l-1,22.12s21.88,8.42,22.1,12.53L51.19,466l.09-34.54Z" style="fill:#455a64"></path><path d="M58.4,451.84a1.76,1.76,0,0,0-1.21,2,1.68,1.68,0,0,0,1.94,1.24A1.85,1.85,0,0,0,60.4,453a1.71,1.71,0,0,0-2.15-1.06" style="fill:#e0e0e0"></path><g style="opacity:0.6000000000000001"><path d="M51.19,466l.14-3.48,40.61,1.62s1.88.85,1.66,2.2Z" style="fill:#fff"></path></g><path d="M72.19,453.59c0,.21-1,.3-2.07,1s-1.57,1.55-1.76,1.46.13-1.29,1.38-2.07S72.24,453.4,72.19,453.59Z" style="fill:#263238"></path><path d="M76.63,455.49c0,.2-.86.55-1.57,1.44s-.92,1.82-1.12,1.8-.33-1.19.57-2.27S76.62,455.29,76.63,455.49Z" style="fill:#263238"></path><path d="M79.11,460.91c-.19,0-.47-1,.07-2.16s1.52-1.59,1.6-1.42-.51.79-.94,1.74S79.32,460.89,79.11,460.91Z" style="fill:#263238"></path><path d="M71.86,448.52c-.09.19-1-.1-2.21,0s-2.08.44-2.19.26.78-.93,2.16-1S72,448.36,71.86,448.52Z" style="fill:#263238"></path><path d="M46.22,269.75v17.5l4.64,68.16S48,388.48,46.2,407.15c-1.54,16.21,1,44.44,1,44.44h27l9.66-94.15,6-58.72L100.26,272Z" style="fill:#263238"></path><path d="M112.53,269.75l2.61,71.05c-.18,13.33-3.85,38.22-8.62,50.65L84.83,439.1l-1.25,4.29-16.13-3.95L79.44,271Z" style="fill:#263238"></path><path d="M93.85,288.57a2.3,2.3,0,0,1,0,.43c0,.3,0,.71,0,1.24,0,1.13,0,2.74,0,4.8,0,4.17,0,10.2-.13,17.65s-.36,16.32-.89,26.16-1.24,20.69-3.55,31.85C87.25,381.87,85,392.47,83,402.11s-3.78,18.33-5.11,25.66S75.59,441.05,75,445.18c-.31,2.06-.47,3.67-.62,4.75-.07.53-.13.94-.17,1.24a2,2,0,0,1-.08.42,2.31,2.31,0,0,1,0-.43c0-.3.06-.71.11-1.24.12-1.09.25-2.7.53-4.77.49-4.14,1.38-10.1,2.66-17.45s3-16,5-25.69,4.24-20.24,6.37-31.41c2.3-11.13,3-22,3.58-31.78s.82-18.69,1-26.14.25-13.47.3-17.64c0-2.06,0-3.67,0-4.8,0-.53,0-.94,0-1.24A3.42,3.42,0,0,1,93.85,288.57Z" style="fill:#455a64"></path><path d="M127.84,251.59a12.11,12.11,0,0,1,.4,4.09c-.2,2.09-.3,7.25-5.88,9s-10.85-2.43-12.55-4.32-1.51-8.08-1.51-8.08l9.17-4.08Z" style="fill:#0F0D2A"></path><path d="M64.45,172.86l-4.64,7.46-18.81,8,4.71,77.21,3.38,14,62.63-2.08,1.55-10.84V214.54c-1.42-13.36-7.87-21.66-13.86-24.95l-3.91-2.68L94,182l-5.52-5.17-17.69-4.59Z" style="fill:#0F0D2A"></path><g style="opacity:0.30000000000000004"><path d="M43.63,259.66a19.19,19.19,0,0,0,18.92,8.42c6.29-1.06,11.6-5.21,17.63-7.28,10.49-3.62,22.46-.74,32.8-4.77.2-1.78.08-4,.2-5.18-5.17-.27-10.68-.56-15.25-3l-4.15-1.53Z"></path></g><path d="M41,188.33s-8.93,7.64-6.34,27.56c2.4,18.5,6.66,44.28,12.34,47.27s17.94,1.49,26.91-3.59,35-18.84,35-18.84L98.14,221.59,63.45,235.05s-4.49-30.7-7.18-36" style="fill:#0F0D2A"></path><path d="M56.27,199.07s.1.19.27.58c.08.2.2.44.31.74l.34,1.05c.51,1.58,1.12,4,1.78,7.07,1.34,6.21,3,15.25,4.66,26.51l-.25-.15,34.67-13.5.19-.08.11.18c3.4,6.05,7,12.48,10.77,19.13l.13.23L109,241l-22.24,12-10.91,5.87c-1.79,1-3.58,2-5.43,2.76a45.89,45.89,0,0,1-5.67,2,37.54,37.54,0,0,1-11.57,1.34,16.94,16.94,0,0,1-5.56-1.17l-.65-.29a6,6,0,0,1-.63-.39,7,7,0,0,1-1-1,13.84,13.84,0,0,1-1.47-2.36,53.87,53.87,0,0,1-3.47-10c-.88-3.33-1.57-6.6-2.19-9.76-1.23-6.34-2.14-12.28-2.9-17.71s-1.43-10.38-1.23-14.75a36.79,36.79,0,0,1,2-11,24,24,0,0,1,3.29-6.25,13.41,13.41,0,0,1,1.19-1.4,3.73,3.73,0,0,1,.46-.42l-.43.45c-.27.31-.67.78-1.14,1.43a25.37,25.37,0,0,0-3.18,6.26,36.74,36.74,0,0,0-1.87,10.93c-.17,4.34.52,9.26,1.3,14.69s1.72,11.35,3,17.67c.63,3.16,1.33,6.42,2.21,9.73a53.11,53.11,0,0,0,3.46,9.94,13.78,13.78,0,0,0,1.42,2.28,6.29,6.29,0,0,0,.93.93,4.26,4.26,0,0,0,.55.34l.62.28a16.26,16.26,0,0,0,5.4,1.12A36.64,36.64,0,0,0,64.64,263a44.73,44.73,0,0,0,5.6-1.94c1.83-.79,3.57-1.78,5.37-2.74l10.92-5.88,22.25-12-.1.35L97.93,221.71l.29.1L63.51,235.22l-.21.09,0-.24c-1.66-11.25-3.22-20.31-4.49-26.51-.63-3.11-1.21-5.5-1.68-7.09-.12-.4-.22-.75-.32-1.06l-.28-.74C56.34,199.28,56.27,199.07,56.27,199.07Z" style="fill:#263238"></path><polygon points="59.26 210.41 81.79 208.93 86.77 218.3 61.52 222.84 59.26 210.41" style="fill:#0F0D2A"></polygon><path d="M59.26,210.41a8.21,8.21,0,0,1,.21.9c.12.63.29,1.46.5,2.5.42,2.19,1,5.25,1.74,9l-.23-.16,22.73-4.15,2.52-.45-.19.37c-1.74-3.3-3.42-6.45-5-9.37l.23.12-16.14.94-4.68.25-1.26,0h-.46a2.39,2.39,0,0,1,.4,0l1.2-.11,4.62-.37,16.29-1.19h.16l.07.14,5,9.36.17.31-.35.07-2.51.45-22.76,4-.19,0,0-.19c-.64-3.82-1.17-6.94-1.55-9.17-.17-1-.3-1.85-.4-2.46A7,7,0,0,1,59.26,210.41Z" style="fill:#263238"></path><path d="M63.45,235.05c.14.11-1.88,2.48-3.56,5.86s-2.4,6.42-2.58,6.37a6.93,6.93,0,0,1,.38-2,24.77,24.77,0,0,1,1.73-4.6,24.3,24.3,0,0,1,2.63-4.15A6.72,6.72,0,0,1,63.45,235.05Z" style="fill:#263238"></path><path d="M86.08,192.12a7.77,7.77,0,0,1-1.25-.89l-3.27-2.6.28,0a30.28,30.28,0,0,1-4.47,5.61l-.16.16-.18-.15-3.45-2.87c-3.7-3-7.16-5.64-9.68-7.5l-3-2.21a7,7,0,0,1-1.06-.85,7.05,7.05,0,0,1,1.18.69c.74.47,1.8,1.17,3.09,2.07,2.58,1.79,6.08,4.37,9.79,7.4,1.21,1,2.38,2,3.45,2.89H77a32.84,32.84,0,0,0,4.5-5.46l.12-.19.16.15L85,191.06A10.58,10.58,0,0,1,86.08,192.12Z" style="fill:#263238"></path><path d="M95.34,187.39a3.6,3.6,0,0,1,.18,1.25,18.24,18.24,0,0,1-.11,3.34l-.07.59-.34-.5a41.09,41.09,0,0,0-2.68-3.46c-.4-.47-.81-.91-1.21-1.33a8.19,8.19,0,0,0-.58-.59c-.2-.13-.17-.13-.35.06l-1.66,2.31a13.19,13.19,0,0,1-1.64,2.07,13.5,13.5,0,0,1,1.34-2.28l1.58-2.39a.65.65,0,0,1,1-.16c.26.22.42.4.64.62.41.42.83.87,1.24,1.35a31.16,31.16,0,0,1,2.66,3.55l-.42.1C95.37,189.23,95.23,187.39,95.34,187.39Z" style="fill:#263238"></path><path d="M55.24,196a12.36,12.36,0,0,1-1.4-1.66,18.09,18.09,0,0,0-3.69-3.58A12.06,12.06,0,0,0,45.41,189a15.32,15.32,0,0,1-2.14-.33,6.49,6.49,0,0,1,2.19,0,11,11,0,0,1,5,1.79,15.27,15.27,0,0,1,3.7,3.78A7.43,7.43,0,0,1,55.24,196Z" style="fill:#263238"></path><path d="M104.19,209.86a25,25,0,0,1-1.78-4.8,25.73,25.73,0,0,1-1.29-5,25.21,25.21,0,0,1,1.79,4.81A25.42,25.42,0,0,1,104.19,209.86Z" style="fill:#263238"></path><path d="M113.05,254a8.66,8.66,0,0,1,.2,2c.08,1.22.22,2.9.3,4.77a31.45,31.45,0,0,1-.1,4.81,5.59,5.59,0,0,1-.43,2,12.43,12.43,0,0,1,.06-2c0-1.22,0-2.9,0-4.76s-.16-3.55-.14-4.78A6.28,6.28,0,0,1,113.05,254Z" style="fill:#263238"></path><path d="M72.17,217a1.21,1.21,0,1,0,.3-.23" style="fill:#e0e0e0"></path><g style="opacity:0.30000000000000004"><polygon points="57.76 203.66 64.08 222.38 84.91 218.64 64.83 226.51 63.14 233 57.76 203.66"></polygon></g><g style="opacity:0.30000000000000004"><path d="M60.38,181.15,79,198l2.88-7.88,3,1-3.23-2.68s-3.54,5.44-4.48,5.54Z"></path></g><path d="M95.87,221.51a5.33,5.33,0,0,1-.38-1.13c-.23-.84-.53-1.89-.88-3.13-.74-2.64-1.81-6.27-3.12-10.25s-2.63-7.52-3.61-10.09c-.45-1.2-.84-2.21-1.15-3a5.92,5.92,0,0,1-.38-1.14,5.3,5.3,0,0,1,.56,1.06c.33.69.78,1.71,1.32,3,1.06,2.53,2.43,6.08,3.75,10.06s2.34,7.65,3,10.32c.33,1.33.57,2.42.72,3.17A4.89,4.89,0,0,1,95.87,221.51Z" style="fill:#263238"></path><path d="M95.6,200.72c3.52,3.51,12.44,12.67,12.44,12.67l2.39-1.44L97.86,198.53a1.58,1.58,0,0,0-2-.24h0A1.57,1.57,0,0,0,95.6,200.72Z" style="fill:#263238"></path><path d="M98.14,221.59l3-8.44a4.74,4.74,0,0,1,4.33-3.24,2.26,2.26,0,0,1,.45,0c1.8.2,11,.8,11,.8l3.55,4a1.85,1.85,0,0,1,0,2.41h0l1,7.17-2,1.37.2,5s-1.8,1.2-2.59.8l-.8-.4-1.2-1.2-3.39,4.79L107,237.36Z" style="fill:#ffbe9d"></path><path d="M120.48,217.49a16.07,16.07,0,0,0-1.29-1.4,6.11,6.11,0,0,0-1.71-1,13.15,13.15,0,0,0-2.48-.34,43,43,0,0,1-6.55-.87,40.63,40.63,0,0,1,6.6.35,11.4,11.4,0,0,1,2.59.41,5.49,5.49,0,0,1,1.8,1.21A3.15,3.15,0,0,1,120.48,217.49Z" style="fill:#eb996e"></path><path d="M120.28,224.09a14.21,14.21,0,0,0-.74-1.84,7.12,7.12,0,0,0-3.54-3,13.74,13.74,0,0,0-4.69-.79,10.09,10.09,0,0,1-2-.06,5.82,5.82,0,0,1,2-.3,11.56,11.56,0,0,1,4.89.67,6.94,6.94,0,0,1,3.68,3.28A3.14,3.14,0,0,1,120.28,224.09Z" style="fill:#eb996e"></path><path d="M119.38,230.25a3.83,3.83,0,0,1-.48-2,6.61,6.61,0,0,0-.45-2.06,2.58,2.58,0,0,0-1.89-1.43,35.24,35.24,0,0,0-4.77-.69,5.23,5.23,0,0,1-2-.46,15.46,15.46,0,0,1,2,.1,23.14,23.14,0,0,1,4.88.55,3.85,3.85,0,0,1,1.35.62,2.74,2.74,0,0,1,.84,1.12,6.2,6.2,0,0,1,.37,2.22C119.27,229.49,119.44,230.22,119.38,230.25Z" style="fill:#eb996e"></path><polygon points="124.37 214.4 84.83 255.24 86.35 256.78 114.68 253.59 152.8 217.27 152.76 215.53 124.37 214.4" style="fill:#455a64"></polygon><g style="opacity:0.30000000000000004"><path d="M126.93,240.06a7.45,7.45,0,0,0-5.71-1.91,10.47,10.47,0,0,0-5.63,2.38,7.6,7.6,0,0,0-2.8,4c-.66,2.83,1.22,5.79,3.78,7.16l.35-.41,9.74-7.82a2.74,2.74,0,0,0,1.13-1.44A2.28,2.28,0,0,0,126.93,240.06Z"></path></g><path d="M122.76,236.24s3.83.08,5.08.7,4.69,4.29,4.69,4.29,0,2.49-1,2.59a9.43,9.43,0,0,1,.2,1.69c.1,1.4.3,2.2-1.6,3.39,0,0,.2,2.3-.5,2.89a13.57,13.57,0,0,1-1.49,1.1s-2.19,2.69-3.49,2.49-3.17,1.4-3.17,1.4-7-2.92-6.3-3.75l2.44-2.7s-4.83-3.52-4.73-4.62.5-1.19.5-1.19-.2-2.1,1.49-2.3c0,0,1.3-2.59,2.59-2.69s10.07,3.09,10.07,3.09l-3.29-2.79s-3.29-.5-3.19-1.59S122.76,236.24,122.76,236.24Z" style="fill:#ffbe9d"></path><path d="M122.17,249.38c-.08.12-2-1-4.44-2.16a45.75,45.75,0,0,1-4.46-2.15,15.74,15.74,0,0,1,4.68,1.68A15.25,15.25,0,0,1,122.17,249.38Z" style="fill:#eb996e"></path><path d="M126.74,246.32a33.92,33.92,0,0,1-5.72-1.85,34,34,0,0,1-5.54-2.35A35.75,35.75,0,0,1,121.2,244,35.69,35.69,0,0,1,126.74,246.32Z" style="fill:#eb996e"></path><path d="M152.65,217.2a3,3,0,0,1-.52,0h-1.51l-5.67-.07-19.71-.38.18-.07L115.51,227c-8,8.25-15.25,15.7-20.54,21.15l-6.27,6.36L87,256.21a5.42,5.42,0,0,1-.63.57,5.45,5.45,0,0,1,.56-.65l1.65-1.78,6.15-6.48,20.43-21.25,9.93-10.25.07-.08h.11l19.71.57,5.66.21,1.51.07A1.81,1.81,0,0,1,152.65,217.2Z" style="fill:#263238"></path><path d="M104.2,135.87a7.5,7.5,0,0,0-4.86-2.5,4.77,4.77,0,0,0-3.15.24,3.77,3.77,0,0,0-1.62,3.64,15.19,15.19,0,0,0,1.21,4,7.23,7.23,0,0,1,.57,4.11l3.59,8.55a4.53,4.53,0,0,0,2.32-6.52,4.38,4.38,0,0,0,1.29-6.64C105.19,139.87,105.32,137.36,104.2,135.87Z" style="fill:#263238"></path><path d="M71.08,158.19l-.42-17.28-10.94-.5a3.65,3.65,0,0,0-1.31,6.45,4.5,4.5,0,0,0,.65,8.44,4.51,4.51,0,0,0,2.9,7.3c0,2,1.14,4.24,3.1,4.8s4.26-.93,5.18-2.87S71.13,160.34,71.08,158.19Z" style="fill:#263238"></path><path d="M59.42,138.5s1.08,14.3,2.48,18.66a44.17,44.17,0,0,0,4.48,9.06l33.36-10.36c1.13-7.72,2.3-15.48,1.82-21.56l-10.64-3.79Z" style="fill:#263238"></path><path d="M66.48,157.16a72,72,0,0,1-3.25-11.77,24.62,24.62,0,0,1,.8-12.06c.2-.59,2-4.5,2.6-4.44.44,0-.64,3.67-.41,4.05a21,21,0,0,1,2.53,12.18,55.62,55.62,0,0,1-2.27,12" style="fill:#263238"></path><path d="M89.64,183.93s0-9.68,0-9.68,9.86-1.14,10.36-10.93c.25-4.73,0-14.51-.41-23.35a18.26,18.26,0,0,0-17.54-17.49l-.94,0c-10.21.19-15.75,9-15.27,19.18l0,33.16L86,189.34Z" style="fill:#ffbe9d"></path><path d="M89.66,174.25A23.66,23.66,0,0,1,77.06,170s2.83,7.25,12.64,6.75Z" style="fill:#eb996e"></path><path d="M96.41,148.34A1.4,1.4,0,0,1,95,149.7a1.33,1.33,0,0,1-1.39-1.31A1.4,1.4,0,0,1,95,147,1.33,1.33,0,0,1,96.41,148.34Z" style="fill:#263238"></path><path d="M97.36,144c-.18.17-1.21-.65-2.72-.71s-2.64.66-2.79.47.11-.41.61-.74a3.81,3.81,0,0,1,2.24-.6,3.67,3.67,0,0,1,2.15.79C97.3,143.53,97.45,143.87,97.36,144Z" style="fill:#263238"></path><path d="M82.92,148.58a1.4,1.4,0,0,1-1.4,1.36,1.35,1.35,0,0,1-1.4-1.32,1.41,1.41,0,0,1,1.41-1.36A1.34,1.34,0,0,1,82.92,148.58Z" style="fill:#263238"></path><path d="M82.59,144c-.18.18-1.21-.65-2.72-.7s-2.63.65-2.79.46.11-.41.61-.74a3.85,3.85,0,0,1,2.24-.6,3.77,3.77,0,0,1,2.16.79C82.53,143.57,82.68,143.9,82.59,144Z" style="fill:#263238"></path><path d="M87.54,155.76a9.71,9.71,0,0,1,2.46-.35c.38,0,.75-.08.83-.34a2,2,0,0,0-.22-1.15q-.48-1.42-1-3c-1.41-4.23-2.42-7.7-2.25-7.76s1.46,3.33,2.87,7.56c.34,1,.67,2,1,3a2.28,2.28,0,0,1,.15,1.52,1,1,0,0,1-.66.54,2.65,2.65,0,0,1-.66.06A10.39,10.39,0,0,1,87.54,155.76Z" style="fill:#263238"></path><path d="M83.07,156.63c.24,0,.18,1.63,1.53,2.84s3.1,1.1,3.11,1.33-.4.3-1.14.29a4,4,0,0,1-2.59-1,3.55,3.55,0,0,1-1.19-2.38C82.76,157,83,156.61,83.07,156.63Z" style="fill:#263238"></path><path d="M83.28,138.81c-.16.4-1.66.15-3.43.29s-3.22.57-3.44.2c-.1-.18.16-.56.75-.93a5.74,5.74,0,0,1,2.58-.79,5.61,5.61,0,0,1,2.66.42C83,138.28,83.35,138.62,83.28,138.81Z" style="fill:#263238"></path><path d="M96.93,138.92c-.28.33-1.3-.06-2.55-.13s-2.31.14-2.54-.23c-.1-.17.08-.51.56-.81a3.47,3.47,0,0,1,2.09-.48,3.57,3.57,0,0,1,2,.76C96.92,138.4,97.05,138.76,96.93,138.92Z" style="fill:#263238"></path><path d="M66.37,148.91c-.16-.08-6.65-2.26-6.7,4.45s6.69,5.37,6.71,5.18S66.37,148.91,66.37,148.91Z" style="fill:#ffbe9d"></path><path d="M64.35,156s-.12.08-.32.17a1.11,1.11,0,0,1-.87,0,2.86,2.86,0,0,1-1.32-2.6,3.89,3.89,0,0,1,.34-1.67,1.36,1.36,0,0,1,.88-.89.6.6,0,0,1,.69.33c.09.18,0,.32.08.33s.15-.11.09-.39a.7.7,0,0,0-.26-.42.9.9,0,0,0-.64-.18,1.65,1.65,0,0,0-1.23,1,4,4,0,0,0-.42,1.87,3.05,3.05,0,0,0,1.69,2.91,1.3,1.3,0,0,0,1.07-.17C64.33,156.14,64.37,156,64.35,156Z" style="fill:#eb996e"></path><path d="M95.25,128.87c1.09-.6-2.17-4.11-4.84-5.32-4-1.82-10.19-2.94-13.91-1.88-4.47,1.28-8.18,3.51-10.42,7.59a26.33,26.33,0,0,0-2.94,13.47,8,8,0,0,0,1,4.09c.94,1.48,2.74,2.41,2.66,4.46a2.84,2.84,0,0,0,.7,2c1.23,1.31,2.73.08,3.42-1.15,1.47-2.63,1.63-5.77,1.75-8.78a19.71,19.71,0,0,0-.43-6.37c-.33-1.12-.86-2.17-1.13-3.31a4.08,4.08,0,0,1,.47-3.35,4.69,4.69,0,0,1,.55-.55A7,7,0,0,1,79,128.48c3.78,1.33,10.23,3.31,11.91,2a10.41,10.41,0,0,0,3-3Z" style="fill:#263238"></path><path d="M76.29,114.74c-.47.05-11.94,2.24-15.08,10.63s-2.38,11-2.38,11a5.32,5.32,0,0,0-1.22,1c-.49.54.11,3.23,1.6,3,11.29-4.55,24.47-4.6,39.12-3.66l11.23.24c3.13.47,4.27-.33,3-1.16-1-.64-9.8-4.52-9.8-4.52L101,129.91l-4.42-6.58s.6-.88-.51-1.66S85.62,113.76,76.29,114.74Z" style="fill:#0F0D2A"></path><path d="M101,129.91a3.64,3.64,0,0,1-.44,0l-1.25-.07c-1.09-.08-2.66-.12-4.61-.14A87.5,87.5,0,0,0,79.59,131a132.92,132.92,0,0,0-14.78,3.56c-1.87.54-3.37,1-4.41,1.34l-1.2.36-.43.12.41-.15,1.19-.4c1-.34,2.54-.84,4.4-1.4a124.6,124.6,0,0,1,14.79-3.61,83.54,83.54,0,0,1,15.16-1.31C98.62,129.61,101,129.91,101,129.91Z" style="fill:#263238"></path><g style="opacity:0.30000000000000004"><path d="M65.73,119.39s12.33-1.57,17.74,1.26l-.63-.34L88,122.76a3.23,3.23,0,0,0,2.74.42,24.21,24.21,0,0,0-7.77-4.49C77.86,116.78,69.73,115.76,65.73,119.39Z"></path></g><path d="M65.55,119.45a7.87,7.87,0,0,1,1.12-.68,15.06,15.06,0,0,1,3.34-1.3,18.3,18.3,0,0,1,5.28-.57,15.21,15.21,0,0,1,6.33,1.46,26.6,26.6,0,0,1,2.92,1.7c.9.6,1.8,1.14,2.61,1.74a18.22,18.22,0,0,0,2.33,1.59,5.45,5.45,0,0,0,2.36.55c3,.15,4.88-.42,4.76-.61a.55.55,0,0,1-.25.23,4.52,4.52,0,0,1-.94.28,16.5,16.5,0,0,1-3.58.24,5.48,5.48,0,0,1-2.42-.55,17.45,17.45,0,0,1-2.36-1.59c-.8-.59-1.71-1.13-2.61-1.73a28.17,28.17,0,0,0-2.9-1.68,15.13,15.13,0,0,0-6.25-1.46,18.53,18.53,0,0,0-5.25.53,16.54,16.54,0,0,0-3.34,1.23c-.38.19-.66.35-.85.46Z" style="fill:#263238"></path><g style="opacity:0.30000000000000004"><path d="M60,128.87a27.18,27.18,0,0,0,6.09-.86c2.34-.43,4.66-.75,7-1.29,1.76-.41,3.84-.77,5-2a2.57,2.57,0,0,1-.86,2.36,12.39,12.39,0,0,1-3.78,1.52,65.25,65.25,0,0,1-14,2.22,14.25,14.25,0,0,1,.56-2"></path></g><path d="M61.6,124.45c-1.41.56-2.28.94-2.36,2.12-.07,1,.09,2.21,1.06,2.41a2.73,2.73,0,0,0,.9,0l15.28-2.55a2.29,2.29,0,0,0,1.42-.6,1.53,1.53,0,0,0-.45-2.1,4.2,4.2,0,0,0-2.31-.6,50.66,50.66,0,0,0-13.54,1.35" style="fill:#0F0D2A"></path><path d="M77.66,126a1.47,1.47,0,0,0,.43-.65,1.91,1.91,0,0,0-.56-1.94,4.73,4.73,0,0,0-3-.78c-1.22,0-2.56.06-4,.15a40.68,40.68,0,0,0-7.13,1c-.89.21-1.61.44-2.1.59l-.57.18-.2.06s.06,0,.19-.09l.56-.22a20.34,20.34,0,0,1,2.09-.65,36.78,36.78,0,0,1,7.15-1.08c1.41-.09,2.76-.12,4-.13a4.81,4.81,0,0,1,3.12.85,2,2,0,0,1,.54,2.06,1.36,1.36,0,0,1-.33.51Z" style="fill:#263238"></path><polygon points="97.98 125.39 88.44 124.87 89.15 127.59 99.55 127.72 97.98 125.39" style="fill:#fff"></polygon><path d="M83.25,133.38s4.27-.51,9.55-1,9.58-.9,9.58-.85-4.27.51-9.56,1S83.25,133.43,83.25,133.38Z" style="fill:#263238"></path><rect x="41.67" y="268.32" width="73.47" height="12.27" style="fill:#455a64"></rect><path d="M43.92,274.25h34a0,0,0,0,1,0,0v34.48A6.92,6.92,0,0,1,71,315.65H50.84a6.92,6.92,0,0,1-6.92-6.92V274.25A0,0,0,0,1,43.92,274.25Z" style="fill:#455a64"></path><path d="M77.94,285.46a14.65,14.65,0,0,1-.14-2.13,24.76,24.76,0,0,0-.75-5.71,3.87,3.87,0,0,0-.88-1.58,9.52,9.52,0,0,0-1.6-1.25,10.13,10.13,0,0,0-4.26-1.35c-3.2-.24-6.79-.13-10.53-.1s-7.35-.3-10.48.39a6.87,6.87,0,0,0-3.9,2,6.72,6.72,0,0,0-1.24,3.63c-.23,2.43-.18,4.42-.22,5.79,0,.64,0,1.16,0,1.58a3.43,3.43,0,0,1,0,.55,2,2,0,0,1-.06-.55c0-.42,0-.94-.05-1.58,0-1.37-.12-3.35.06-5.82a7.14,7.14,0,0,1,1.27-3.87,7.22,7.22,0,0,1,4.14-2.17,22.45,22.45,0,0,1,5.12-.44c1.76,0,3.59,0,5.46,0,3.75,0,7.3-.13,10.58.14a10.51,10.51,0,0,1,4.43,1.46,9.63,9.63,0,0,1,1.66,1.34,4.08,4.08,0,0,1,1,1.75,22.47,22.47,0,0,1,.6,5.81c0,.64,0,1.16,0,1.58A3.16,3.16,0,0,1,77.94,285.46Z" style="fill:#263238"></path><path d="M77.69,289.09c0,.15-7.48.26-16.71.26s-16.71-.11-16.71-.26,7.48-.26,16.71-.26S77.69,289,77.69,289.09Z" style="fill:#263238"></path><path d="M53.66,316c-.15,0-.26-6.05-.26-13.51s.11-13.52.26-13.52.26,6.05.26,13.52S53.8,316,53.66,316Z" style="fill:#263238"></path><path d="M69,315.91c-.14,0-.26-6-.26-13.38s.12-13.39.26-13.39.26,6,.26,13.39S69.14,315.91,69,315.91Z" style="fill:#263238"></path><path d="M115.14,268.32l4.24,5.93s3.79,35.34,2.1,37-7.37,1.62-7.37,1.62l-1.55-42.31Z" style="fill:#455a64"></path><path d="M101.83,280.1a38.85,38.85,0,0,1-.16-11.92,55.61,55.61,0,0,1,.14,6A55,55,0,0,1,101.83,280.1Z" style="fill:#263238"></path><path d="M115.22,268.52a7.11,7.11,0,0,1,.45,2c.2,1.24.4,3,.51,4.89a10.32,10.32,0,0,1-.11,2.74,3.47,3.47,0,0,1-1.15,2,2.36,2.36,0,0,1-1.43.58c-.38,0-.56-.09-.56-.11a2.88,2.88,0,0,0,1.74-.75,3.17,3.17,0,0,0,.93-1.8,11.32,11.32,0,0,0,.06-2.63C115.46,271.61,115.07,268.54,115.22,268.52Z" style="fill:#263238"></path></g></svg>